<svg width="841" height="160" viewBox="0 0 841 160" fill="none" xmlns="http://www.w3.org/2000/svg">
<style>
  .char {
    opacity: 0;
    transform: translateY(110%);
    animation: slideUp .6s .2s forwards;
    animation-timing-function: cubic-bezier(0.25, 0.46, 0.45, 0.94);
  }
  @keyframes slideUp {
    to {
      opacity: 1;
      transform: translateY(0);
    }
  }
  #char-1 {
    animation-delay: 0s;
  }
  #char-2 {
    animation-delay: 0.2s;
  }
  #char-3 {
    animation-delay: 0.4s;
  }
  #char-4 {
    animation-delay: 0.6s;
  }
  #char-5 {
    animation-delay: 0.8s;
  }
  #char-6 {
    animation-delay: 1s;
  }
  #char-7 {
    animation-delay: 1.2s;
  }
  #char-8 {
    animation-delay: 1.4s;
  }
  #char-9 {
    animation-delay: 1.6s;
  }
  #char-10 {
    animation-delay: 1.8s;
  }
</style>
<path id="char-1" class="char" d="M77.3361 19.2371C62.5021 19.2371 49.2181 22.081 37.4841 27.769C26.2188 33.0427 16.6722 41.3912 9.94403 51.8531C3.31803 62.2211 0.00605755 74.173 0.00805755 87.709C0.00805755 101.823 3.32003 114.315 9.94403 125.185C16.5487 136.045 26.0984 144.808 37.4841 150.457C49.2174 156.434 62.5734 159.422 77.5521 159.421C85.4242 159.542 93.2852 158.781 100.988 157.153C108.319 155.344 115.394 152.623 122.048 149.053C122.711 148.658 123.297 148.146 123.776 147.541C124.198 146.513 124.418 145.413 124.424 144.301L126.151 121.401C126.151 120.969 125.645 120.753 124.64 120.753C123.917 120.753 123.56 120.898 123.56 121.185C116.934 144.658 101.67 156.394 77.7681 156.393C66.5321 156.392 55.5386 153.126 46.1241 146.993C36.2475 140.717 28.1421 132.017 22.5801 121.721C16.7763 111.248 13.7638 99.4584 13.832 87.485C13.832 74.383 16.4601 62.8991 21.7161 53.0331C26.7307 43.4151 34.4691 35.4888 43.9641 30.2451C53.5381 24.9191 64.6621 22.2551 77.3361 22.2531C89.2861 22.2531 98.934 25.241 106.28 31.217C113.626 37.193 118.881 46.1604 122.044 58.119C122.185 58.551 122.654 58.7331 123.444 58.6591C124.234 58.5851 124.632 58.335 124.632 57.903L122.044 33.2771C122.036 32.14 121.854 31.0109 121.504 29.929C121.057 29.3642 120.508 28.8892 119.884 28.5291C113.801 25.3299 107.343 22.8993 100.66 21.2931C94.612 19.9264 86.836 19.2424 77.332 19.2411L77.3361 19.2371Z" fill="white"/>
<path id="char-2" class="char" d="M176.263 39.325C176.263 35.005 176.73 31.801 177.663 29.713C178.182 28.6343 178.936 27.686 179.871 26.9383C180.806 26.1905 181.897 25.6624 183.063 25.393C185.725 24.603 189.865 24.207 195.482 24.205C195.769 24.205 195.915 23.773 195.915 22.905C195.915 22.037 195.769 21.605 195.482 21.605L185.331 21.821C179.283 22.111 174.316 22.255 170.431 22.253C166.976 22.253 162.224 22.109 156.176 21.821L145.592 21.605C145.301 21.605 145.159 22.037 145.159 22.905C145.159 23.773 145.301 24.205 145.592 24.205C151.207 24.205 155.347 24.601 158.012 25.393C159.166 25.6565 160.247 26.1703 161.181 26.8982C162.114 27.626 162.875 28.5501 163.412 29.605C164.345 31.623 164.812 34.7896 164.812 39.105V139.119C164.812 143.439 164.345 146.643 163.412 148.731C162.899 149.803 162.144 150.741 161.207 151.472C160.27 152.203 159.176 152.706 158.012 152.943C155.345 153.665 151.205 154.025 145.592 154.023C145.301 154.023 145.159 154.455 145.159 155.323C145.159 156.191 145.301 156.623 145.592 156.623H244.952C245.413 156.683 245.881 156.647 246.327 156.517C246.773 156.386 247.187 156.165 247.543 155.867C248.041 155.14 248.271 154.261 248.192 153.383C248.327 143.995 248.976 134.621 250.136 125.303C250.136 124.871 249.736 124.621 248.948 124.547C248.16 124.473 247.76 124.655 247.76 125.087C245.168 143.376 236.744 152.52 222.487 152.519H194.844C189.369 152.519 185.373 152.159 182.855 151.439C181.75 151.194 180.713 150.709 179.817 150.017C178.921 149.326 178.189 148.446 177.672 147.439C176.733 145.495 176.267 142.435 176.272 138.259V39.325H176.263Z" fill="white"/>
<path id="char-3" class="char" d="M332.644 47.749C332.48 41.1803 334.619 34.7613 338.692 29.6049C342.721 24.5656 349.057 22.0456 357.7 22.0449C367.058 22.0449 374.258 24.997 379.3 30.901C384.212 36.5063 387.169 43.5566 387.724 50.9889C387.81 51.2802 388 51.5294 388.259 51.6889C388.517 51.8483 388.825 51.9068 389.124 51.853C389.913 51.853 390.312 51.5659 390.312 50.9889L388.368 28.089C388.368 26.5056 387.288 25.2816 385.128 24.417C377.334 21.107 368.971 19.3463 360.504 19.233C353.977 19.1854 347.508 20.4716 341.496 23.013C335.757 25.4021 330.788 29.3255 327.132 34.353C323.46 39.395 321.624 45.5149 321.624 52.7129C321.464 58.4395 322.927 64.0945 325.844 69.025C328.503 73.3964 331.944 77.2406 335.996 80.365C341.216 84.2148 346.662 87.7491 352.304 90.949C358.074 94.2841 363.662 97.9253 369.044 101.857C373.236 105.054 376.79 109.01 379.52 113.519C382.501 118.583 383.998 124.384 383.84 130.259C383.84 139.192 381.212 145.744 375.956 149.915C370.7 154.086 364.256 156.174 356.624 156.179C345.824 156.179 337.328 152.507 331.136 145.163C324.928 137.79 320.957 128.797 319.688 119.243C319.655 119.106 319.595 118.978 319.51 118.865C319.426 118.753 319.321 118.658 319.199 118.588C319.078 118.517 318.943 118.472 318.804 118.455C318.664 118.437 318.523 118.448 318.388 118.487C318.252 118.473 318.114 118.487 317.984 118.529C317.853 118.571 317.733 118.641 317.631 118.732C317.53 118.824 317.448 118.936 317.392 119.061C317.337 119.186 317.308 119.322 317.308 119.459V119.675L320.548 147.755C320.631 148.636 320.812 149.506 321.088 150.347C321.368 150.997 321.862 151.53 322.488 151.859C327.258 154.331 332.295 156.252 337.5 157.583C342.208 158.683 347.029 159.226 351.864 159.203C361.368 159.203 369.396 157.583 375.948 154.343C382.064 151.494 387.21 146.913 390.748 141.167C394.07 135.585 395.789 129.195 395.716 122.699C395.884 116.843 394.345 111.064 391.288 106.067C388.512 101.649 384.92 97.8005 380.704 94.727C376.6 91.777 370.804 88.069 363.316 83.603C356.258 79.4283 350.75 75.9363 346.792 73.1269C342.811 70.3017 339.403 66.7469 336.748 62.651C333.935 58.2004 332.508 53.0142 332.648 47.751L332.644 47.749Z" fill="white"/>
<path id="char-4" class="char" d="M473.696 146.677C468.694 150.552 462.522 152.609 456.196 152.509C444.529 152.509 438.696 146.533 438.696 134.581V80.3651C448.726 80.2303 458.736 81.3183 468.503 83.6051C469.077 83.7501 469.584 83.2471 470.016 82.0931C470.439 80.9897 470.658 79.8187 470.663 78.6371C470.692 77.4345 470.547 76.234 470.232 75.0731C469.941 74.1381 469.584 73.6731 469.151 73.6731C459.046 74.9414 448.879 75.6624 438.696 75.8331V60.0611C438.696 59.6291 438.189 59.4131 437.184 59.4131C436.029 59.4131 435.456 59.6291 435.456 60.0611C435.505 62.2254 435.075 64.3738 434.198 66.3528C433.32 68.3318 432.016 70.0925 430.379 71.5091C426.994 74.5331 422.566 76.0451 417.095 76.0451C416.663 76.0451 416.447 76.4784 416.447 77.3451C416.447 78.2118 416.663 78.6451 417.095 78.6451C419.638 78.5241 422.186 78.7788 424.655 79.4011C425.348 79.634 425.975 80.0304 426.483 80.5568C426.991 81.0831 427.364 81.7239 427.572 82.4251C428.198 85.077 428.452 87.8031 428.327 90.5251V141.933C428.327 148.126 430.199 152.554 433.943 155.217C437.687 157.88 442.511 159.214 448.416 159.217C452.704 159.222 456.955 158.416 460.943 156.841C465.916 154.729 470.628 152.047 474.983 148.849C475.195 148.691 475.337 148.455 475.377 148.193C475.418 147.931 475.354 147.664 475.199 147.449C475.136 147.198 475 146.972 474.808 146.798C474.616 146.625 474.376 146.513 474.12 146.477L473.696 146.677Z" fill="white"/>
<path id="char-5" class="char" d="M556.644 144.949C553.387 147.139 549.912 148.985 546.274 150.457C542.602 151.765 538.721 152.388 534.824 152.293C524.164 152.293 515.884 148.369 509.984 140.521C504.074 132.674 501.121 122.486 501.124 109.957C501.124 107.797 501.271 104.989 501.564 101.533L555.344 101.317C555.767 101.358 556.192 101.265 556.56 101.052C556.927 100.839 557.219 100.516 557.394 100.129C557.838 98.7718 558.021 97.3426 557.934 95.9171C557.934 88.2865 555.884 82.2744 551.784 77.8811C547.674 73.4904 541.587 71.2945 533.524 71.2931C525.648 71.2423 517.913 73.373 511.174 77.4491C504.351 81.5338 498.725 87.3451 494.864 94.2971C490.827 101.444 488.741 109.526 488.814 117.733C488.751 124.782 490.265 131.756 493.244 138.145C496.122 144.323 500.643 149.591 506.314 153.373C512.074 157.261 519.057 159.205 527.264 159.205C538.354 159.205 548.651 155.172 558.154 147.105C558.291 146.892 558.355 146.639 558.335 146.387C558.315 146.134 558.213 145.894 558.044 145.705C557.923 145.491 557.751 145.31 557.543 145.179C557.336 145.047 557.099 144.968 556.854 144.949H556.644ZM526.614 75.6131C532.514 75.6131 537.157 77.4851 540.544 81.2291C543.931 84.9731 545.551 90.5891 545.404 98.0771L501.994 98.9411C503.434 91.5971 506.277 85.8731 510.524 81.7691C514.771 77.6651 520.134 75.6131 526.614 75.6131Z" fill="white"/>
<path id="char-5" class="char" d="M577.164 156.613C580.474 156.613 583.064 156.541 584.934 156.397L596.604 156.181L608.264 156.397C610.274 156.542 612.874 156.613 616.044 156.613C616.474 156.613 616.684 156.181 616.684 155.313C616.684 154.445 616.474 154.013 616.044 154.013C611.864 154.013 608.804 153.617 606.864 152.825C605.935 152.47 605.101 151.905 604.426 151.174C603.752 150.443 603.255 149.567 602.974 148.613C602.201 145.509 601.874 142.31 602.004 139.113V1.52505C602.003 1.31562 601.954 1.10922 601.86 0.921898C601.767 0.734576 601.631 0.571396 601.464 0.445061C601.193 0.197692 600.849 0.0459242 600.484 0.013054C600.112 0.00194256 599.743 0.0758217 599.404 0.229057L572.844 12.973C572.264 13.1177 572.084 13.551 572.304 14.273C572.341 14.5637 572.48 14.8319 572.696 15.0297C572.912 15.2275 573.191 15.3421 573.484 15.3531H573.924C578.524 13.1931 581.977 12.1131 584.284 12.1131C585.435 12.0405 586.578 12.3364 587.549 12.9578C588.52 13.5793 589.268 14.4939 589.684 15.5691C590.694 17.8737 591.201 21.6897 591.204 27.0171V139.119C591.334 142.359 590.97 145.6 590.124 148.731C589.839 149.683 589.34 150.557 588.666 151.287C587.992 152.017 587.16 152.583 586.234 152.943C584.354 153.665 581.331 154.025 577.164 154.023C576.724 154.023 576.514 154.455 576.514 155.323C576.514 156.191 576.724 156.623 577.164 156.623V156.613Z" fill="white"/>
<path id="char-7" class="char" d="M632.454 156.613C635.764 156.613 638.357 156.541 640.234 156.397L651.894 156.181L663.564 156.397C665.574 156.542 668.164 156.614 671.334 156.613C671.764 156.613 671.984 156.181 671.984 155.313C671.984 154.445 671.764 154.013 671.334 154.013C667.154 154.013 664.104 153.613 662.154 152.825C661.226 152.468 660.393 151.902 659.718 151.172C659.044 150.442 658.546 149.566 658.264 148.613C657.496 145.508 657.169 142.31 657.294 139.113V1.52505C657.295 1.31522 657.247 1.10802 657.153 0.920342C657.06 0.732661 656.923 0.569822 656.754 0.445061C656.488 0.196633 656.146 0.044522 655.784 0.013054C655.412 0.00194256 655.043 0.0758217 654.704 0.229057L628.134 12.973C627.554 13.118 627.384 13.55 627.594 14.273C627.633 14.5646 627.774 14.8331 627.991 15.0308C628.209 15.2284 628.49 15.3426 628.784 15.3531H629.214C633.824 13.1931 637.281 12.1131 639.584 12.1131C640.734 12.0419 641.877 12.3384 642.848 12.9596C643.819 13.5809 644.567 14.4947 644.984 15.5691C645.994 17.8737 646.497 21.6897 646.494 27.0171V139.119C646.629 142.359 646.265 145.601 645.414 148.731C645.131 149.684 644.633 150.559 643.958 151.289C643.284 152.019 642.451 152.585 641.524 152.943C639.654 153.665 636.631 154.025 632.454 154.023C632.024 154.023 631.804 154.455 631.804 155.323C631.804 156.191 632.024 156.623 632.454 156.623V156.613Z" fill="white"/>
<path id="char-8" class="char" d="M767.884 144.949C762.704 147.109 758.744 148.189 756.004 148.189C752.984 148.189 750.854 147.038 749.634 144.733C748.414 142.428 747.804 138.614 747.804 133.285V92.4609C747.804 85.6936 746.397 80.4376 743.584 76.6929C740.784 72.9502 736.501 71.0782 730.734 71.0769C725.18 71.2376 719.697 72.3707 714.534 74.4249C708.971 76.3904 703.758 79.2345 699.094 82.8489C694.844 86.2336 692.721 89.5096 692.724 92.6769C692.718 94.2531 693.337 95.7674 694.444 96.8889C695.062 97.5143 695.806 98.0013 696.627 98.3177C697.448 98.6342 698.326 98.773 699.204 98.7249C701.644 98.7249 703.264 98.0409 704.064 96.6729C705.031 94.8026 705.722 92.8017 706.114 90.7329C707.052 86.6885 708.98 82.9403 711.724 79.8249C714.464 76.7302 718.281 75.1822 723.174 75.1809C732.964 75.1809 737.861 83.1009 737.864 98.9409V114.061L713.024 123.349C705.244 126.231 699.771 129.291 696.604 132.529C695.121 133.935 693.936 135.626 693.12 137.5C692.304 139.374 691.873 141.393 691.854 143.437C691.832 145.378 692.214 147.302 692.977 149.087C693.74 150.873 694.866 152.479 696.284 153.805C699.234 156.684 703.231 158.124 708.274 158.125C711.148 158.124 713.999 157.612 716.694 156.613C720.03 155.296 723.218 153.631 726.204 151.645L738.084 144.301C738.181 147.845 738.987 151.333 740.454 154.561C741.754 157.079 743.194 158.339 744.774 158.341C745.377 158.334 745.969 158.186 746.504 157.909L768.754 147.325C769.016 147.213 769.228 147.008 769.348 146.75C769.468 146.491 769.488 146.197 769.404 145.925C769.381 145.656 769.257 145.406 769.056 145.226C768.856 145.045 768.594 144.948 768.324 144.953H767.884V144.949ZM727.494 147.325C723.174 149.775 719.431 150.999 716.264 150.997C712.374 150.997 709.351 149.773 707.194 147.325C705.037 144.886 703.88 141.724 703.954 138.469C703.902 135.891 704.739 133.374 706.324 131.341C707.914 129.326 710.794 127.454 714.964 125.725L737.864 117.085V141.277L727.494 147.325Z" fill="white"/>
<path id="char-9" class="char" d="M827.504 71.2931C824.334 71.2931 821.021 72.5891 817.564 75.1811C814.107 77.7731 809.427 82.6691 803.524 89.8691V88.5691C803.67 84.3244 802.934 80.0955 801.364 76.1491C799.924 72.9091 798.631 71.2891 797.484 71.2891C797.112 71.2758 796.742 71.3498 796.404 71.5051L772.424 82.7371C772.293 82.7896 772.175 82.8685 772.076 82.9687C771.978 83.0689 771.9 83.1884 771.85 83.3197C771.799 83.451 771.776 83.5914 771.782 83.732C771.788 83.8726 771.823 84.0105 771.884 84.1371C771.94 84.4117 772.088 84.6586 772.305 84.8358C772.522 85.013 772.794 85.1096 773.074 85.1091H773.504C779.264 82.9491 783.297 81.8691 785.604 81.8691C788.474 81.8691 790.494 82.9491 791.644 85.1091C792.794 87.2691 793.374 90.8701 793.374 95.9091V139.109C793.509 142.35 793.145 145.591 792.294 148.721C792.011 149.674 791.513 150.549 790.839 151.279C790.164 152.009 789.331 152.575 788.404 152.933C786.537 153.655 783.514 154.015 779.334 154.013C778.904 154.013 778.684 154.445 778.684 155.313C778.684 156.181 778.904 156.613 779.334 156.613C782.644 156.613 785.237 156.541 787.114 156.397L798.564 156.181L814.114 156.397C816.847 156.542 820.517 156.614 825.124 156.613C825.564 156.613 825.774 156.181 825.774 155.313C825.774 154.445 825.564 154.013 825.124 154.013C818.644 154.013 813.931 153.653 810.984 152.933C808.024 152.214 806.044 150.81 805.044 148.721C804.034 146.635 803.527 143.431 803.524 139.109V92.8931C808.134 87.2771 811.554 83.6051 813.784 81.8771C815.562 80.3264 817.808 79.4141 820.164 79.2851C823.188 79.395 826.082 80.5386 828.364 82.5251C828.654 82.6704 829.374 83.1371 830.524 83.9251C831.666 84.7146 833.026 85.1298 834.414 85.1131C835.267 85.1696 836.123 85.0448 836.924 84.747C837.725 84.4491 838.455 83.985 839.064 83.3851C840.095 82.353 840.677 80.9559 840.684 79.4971C840.684 77.3371 839.277 75.4291 836.464 73.7731C833.759 72.1449 830.661 71.2861 827.504 71.2891V71.2931Z" fill="white"/>
</svg>
