<svg viewBox="0 0 30 30" fill="none" xmlns="http://www.w3.org/2000/svg" class="w-full object-contain">
  <g>
    <animateTransform 
      attributeType="XML" 
      attributeName="transform" 
      type="rotate" 
      from="360 15 15" 
      to="0 15 15"
      dur="10s" 
      repeatCount="indefinite" />
    <path d="M29.8841 13.1507C28.9624 20.5387 22.6576 26.2557 15.017 26.2557C7.37641 26.2557 0.955634 20.4373 0.0339972 13.0492C-0.0425104 13.6625 0.0340406 14.3888 0.0340406 15.0228C0.0340409 23.2945 6.74214 30 15.017 30C23.2919 30 30 23.2945 30 15.0228C30 14.3888 29.9606 13.764 29.8841 13.1507Z" fill="url(#paint0_linear_10201_1786)"/>
    <path d="M13.1698 0.1161C20.5495 1.03878 26.2599 7.35075 26.2599 15C26.2599 22.6493 20.5495 28.9613 13.1698 29.8839C13.7824 29.9605 14.4065 30 15.0398 30C23.3021 30 30 23.2843 30 15C30 6.71577 23.3021 5.23852e-05 15.0398 5.16621e-05C14.4065 5.16067e-05 13.7824 0.0395051 13.1698 0.1161Z" fill="url(#paint1_linear_10201_1786)"/>
    <path d="M6.38407 23.5415C4.68466 21.1275 3.68335 18.0757 3.68335 14.9103C3.68335 7.30677 9.43335 1.03252 16.8641 0.115358C16.2473 0.0392205 15.6189 0 14.9812 0C7.29937 0 0.960556 5.69143 0.0339546 13.0465C0.57482 17.3397 2.96449 21.183 6.38407 23.5415Z" fill="url(#paint2_linear_10201_1786)"/>
    <path d="M6.26097 6.56663C8.72388 4.79067 11.7482 3.74429 15.017 3.74429C22.6576 3.74429 28.9624 9.46123 29.8841 16.8493C29.9606 16.236 30 15.6112 30 14.9771C30 6.70549 23.2919 6.5567e-07 15.017 0C15.0067 -4.53219e-10 14.9963 1.05032e-05 14.986 3.15008e-05C15.622 0.000226259 16.2489 0.0394408 16.8642 0.115389C12.4543 0.65969 8.6364 3.09072 6.26097 6.56663Z" fill="url(#paint3_linear_10201_1786)"/>
  </g>
  <defs>
    <linearGradient id="paint0_linear_10201_1786" x1="0.989098" y1="30" x2="23.4853" y2="30" gradientUnits="userSpaceOnUse">
      <stop stop-color="#FAFAFA"/>
      <stop offset="1" stop-color="#AAAAAA"/>
    </linearGradient>
    <linearGradient id="paint1_linear_10201_1786" x1="21.5849" y1="5.03276e-05" x2="21.5849" y2="30" gradientUnits="userSpaceOnUse">
      <stop stop-color="#777777"/>
      <stop offset="1" stop-color="#DDDDDD"/>
    </linearGradient>
    <linearGradient id="paint2_linear_10201_1786" x1="8.44904" y1="-0.0917205" x2="8.44904" y2="23.5415" gradientUnits="userSpaceOnUse">
      <stop stop-color="#DDDDDD"/>
      <stop offset="1" stop-color="#777777"/>
    </linearGradient>
    <linearGradient id="paint3_linear_10201_1786" x1="6.18052" y1="16.0034" x2="30" y2="16.0034" gradientUnits="userSpaceOnUse">
      <stop stop-color="#AAAAAA"/>
      <stop offset="1" stop-color="#FAFAFA"/>
    </linearGradient>
  </defs>
</svg>
