<svg viewBox="0 0 24 24" fill="none" xmlns="http://www.w3.org/2000/svg">
<path fill-rule="evenodd" clip-rule="evenodd" d="M11.9938 11.1494C11.4447 9.12721 9.59591 7.64 7.39981 7.64C4.77093 7.64 2.6398 9.77112 2.6398 12.4C2.6398 15.0289 4.77093 17.16 7.39981 17.16C9.60884 17.16 11.4664 15.6552 12.0034 13.6148C11.9991 13.6695 11.9915 13.7616 11.9798 13.888C11.9558 14.108 11.8958 14.424 11.7638 14.828C11.6198 15.224 11.3958 15.696 11.0278 16.176C10.9895 16.2239 10.9538 16.2717 10.9165 16.3216C10.9071 16.3343 10.8975 16.3471 10.8878 16.36L10.8774 16.3712C10.8284 16.424 10.7764 16.48 10.7278 16.536C10.6718 16.596 10.6158 16.656 10.5558 16.716L10.5445 16.7265C10.4878 16.7795 10.4278 16.8355 10.3678 16.888C10.1118 17.124 9.80781 17.328 9.47581 17.532C9.13581 17.716 8.76381 17.888 8.35581 18.004C8.32981 18.012 8.30481 18.02 8.27981 18.028C8.25481 18.036 8.22981 18.044 8.20381 18.052L8.12781 18.076L8.04381 18.092C7.99374 18.1009 7.94287 18.1107 7.89155 18.1205C7.82809 18.1327 7.76395 18.1449 7.69981 18.156L7.61181 18.172L7.53981 18.18C7.51581 18.182 7.49181 18.185 7.46781 18.188C7.44381 18.191 7.41981 18.194 7.39581 18.196C7.34781 18.204 7.29981 18.208 7.25181 18.212L7.17981 18.22L7.05981 18.224C6.60381 18.248 6.13181 18.212 5.65181 18.12C5.41581 18.068 5.17181 18.008 4.93981 17.924C4.70381 17.844 4.47181 17.744 4.23981 17.632C3.32781 17.176 2.49981 16.448 1.91981 15.524C1.63181 15.064 1.39981 14.556 1.24781 14.024C1.22307 13.9424 1.20292 13.8592 1.18263 13.7754C1.17012 13.7238 1.15755 13.6719 1.14381 13.62C1.13581 13.5747 1.12692 13.5293 1.11803 13.484C1.10026 13.3933 1.08248 13.3027 1.07181 13.212L1.04381 13.004L1.02781 12.78L1.01981 12.668L1.01581 12.584L1.00781 12.42V12.38V12.368V12.344V12.292L1.01181 12.188C1.01181 12.12 1.01581 12.048 1.02381 11.98L1.03981 11.772L1.06781 11.564C1.07848 11.4733 1.09626 11.3827 1.11403 11.292C1.12292 11.2467 1.13181 11.2013 1.13981 11.156C1.14593 11.13 1.1519 11.104 1.15787 11.078C1.18311 10.9681 1.20823 10.8588 1.24381 10.752C1.39581 10.22 1.62781 9.716 1.91581 9.252C2.49581 8.332 3.31981 7.6 4.23581 7.144C4.69181 6.916 5.17181 6.752 5.64781 6.656C5.88781 6.612 6.12381 6.576 6.35981 6.56L6.53581 6.548C6.56781 6.548 6.59881 6.547 6.62981 6.546C6.66081 6.545 6.69181 6.544 6.72381 6.544C6.82618 6.54099 6.89908 6.54477 6.97152 6.54854C6.99532 6.54977 7.01908 6.55101 7.04381 6.552L7.13981 6.556L7.22381 6.564C7.25181 6.568 7.27981 6.571 7.30781 6.574C7.33581 6.577 7.36381 6.58 7.39181 6.584C7.41981 6.588 7.44781 6.591 7.47581 6.594C7.50381 6.597 7.53181 6.6 7.55981 6.604L7.64381 6.612L7.72381 6.628C7.78401 6.63914 7.8442 6.65153 7.90371 6.66378C7.95096 6.67351 7.99778 6.68314 8.04381 6.692L8.12381 6.708L8.19981 6.732L8.19982 6.732C8.25182 6.748 8.30382 6.764 8.35181 6.78C8.75981 6.896 9.13181 7.068 9.46781 7.252C10.1398 7.64 10.6518 8.124 11.0198 8.608C11.3878 9.088 11.6118 9.564 11.7558 9.956C11.8878 10.356 11.9518 10.684 11.9718 10.896C11.9822 11.0082 11.9894 11.0934 11.9938 11.1494Z" fill="white"/>
<path fill-rule="evenodd" clip-rule="evenodd" d="M7.46666 8.3139C8.01823 10.4588 10.0173 11.9929 12.3153 11.8774C14.9408 11.7454 16.9623 9.51003 16.8304 6.88447C16.6984 4.25891 14.463 2.23744 11.8374 2.36939C9.77264 2.47316 8.08146 3.87782 7.51741 5.75008C7.52121 5.70956 7.52562 5.66273 7.53064 5.60965C7.55575 5.39211 7.62378 5.07229 7.75991 4.67296C7.90843 4.28101 8.13702 3.80894 8.51363 3.33344C8.54547 3.29549 8.57556 3.25594 8.60611 3.21578C8.62268 3.194 8.63939 3.17203 8.6566 3.15003C8.68316 3.12066 8.71077 3.09224 8.73838 3.06382C8.76599 3.0354 8.79359 3.00697 8.82015 2.9776C8.83919 2.95796 8.85776 2.93789 8.87633 2.91782C8.91348 2.87768 8.95062 2.83755 8.99149 2.80078C9.00109 2.79215 9.01078 2.78341 9.02055 2.7746C9.07319 2.72715 9.12813 2.67763 9.18321 2.63094C9.43983 2.39777 9.75019 2.19794 10.0807 2.0011C10.4243 1.82363 10.7963 1.65675 11.2072 1.54398L11.3612 1.5002L11.4403 1.4802L11.524 1.47199C11.5815 1.46109 11.6391 1.45119 11.6967 1.44129C11.7542 1.43138 11.8118 1.42148 11.8693 1.41058L11.9566 1.39418L12.0283 1.38657C12.0522 1.38337 12.0761 1.38116 12.1 1.37896C12.124 1.37676 12.1479 1.37455 12.1718 1.37135C12.1956 1.36815 12.2195 1.36595 12.2435 1.36374C12.2674 1.36154 12.2913 1.35934 12.3152 1.35613L12.3869 1.34853L12.5069 1.3465C12.9626 1.3276 13.4374 1.37183 13.915 1.47198C14.1499 1.52425 14.3934 1.58811 14.6262 1.67654C14.8627 1.76078 15.092 1.86139 15.3222 1.97799C16.2308 2.44497 17.0451 3.18903 17.6125 4.11773C17.8922 4.58427 18.1179 5.08958 18.261 5.62708C18.2901 5.72774 18.3125 5.82875 18.3348 5.92976C18.3423 5.96343 18.3497 5.99709 18.3574 6.03075C18.3627 6.06228 18.3683 6.09401 18.3739 6.12587C18.3922 6.23042 18.4107 6.33621 18.422 6.44002L18.4445 6.64715L18.4599 6.87467L18.4655 6.98653L18.4658 7.07062L18.4664 7.2428C18.4659 7.27436 18.4662 7.27939 18.4662 7.2794C18.4662 7.2794 18.4659 7.27527 18.4644 7.28296L18.465 7.29494L18.4622 7.31911L18.4608 7.37125L18.4581 7.47552C18.4575 7.54363 18.4529 7.61195 18.4445 7.68446L18.4268 7.88961L18.3971 8.09536C18.3859 8.1849 18.3678 8.27308 18.3496 8.36179C18.3399 8.40884 18.3302 8.45604 18.3215 8.50367C18.2882 8.63751 18.2549 8.77135 18.2135 8.90559C18.0559 9.43417 17.8169 9.9388 17.5234 10.3941C16.9286 11.3091 16.0954 12.0238 15.1764 12.4665C14.7151 12.69 14.2381 12.8421 13.7581 12.9343C13.5198 12.9743 13.2814 13.0103 13.0456 13.0222L12.8699 13.031C12.8378 13.0306 12.8068 13.0312 12.7758 13.0317C12.7448 13.0323 12.7138 13.0328 12.6817 13.0325C12.5938 13.0343 12.5273 13.03 12.4642 13.026C12.4297 13.0238 12.3962 13.0216 12.3607 13.0206L12.2642 13.0134L12.1795 13.0016C12.1514 12.999 12.1232 12.9954 12.0949 12.9919C12.0667 12.9883 12.0385 12.9847 12.0103 12.9821C11.9822 12.9795 11.9549 12.9759 11.9277 12.9722C11.9005 12.9686 11.8733 12.9649 11.8451 12.9624L11.7644 12.9504L11.6835 12.9344C11.5743 12.9119 11.469 12.8891 11.3637 12.8664L11.2828 12.8504L11.2055 12.8263C11.1849 12.8195 11.165 12.8134 11.1455 12.8073C11.1147 12.7978 11.0848 12.7885 11.0549 12.7778C10.6484 12.658 10.2788 12.4764 9.94493 12.2889C9.28006 11.8898 8.77077 11.3987 8.41389 10.912C8.05302 10.4255 7.83277 9.94795 7.69684 9.55428C7.5727 9.15601 7.51209 8.82663 7.49325 8.61131C7.47758 8.46355 7.46992 8.36262 7.46666 8.3139Z" fill="white"/>
<path fill-rule="evenodd" clip-rule="evenodd" d="M12.1601 20.96C14.789 20.96 16.9201 18.8289 16.9201 16.2C16.9201 14.1428 15.615 12.3904 13.7877 11.7255C13.9918 11.758 14.2532 11.8171 14.5681 11.92C14.9641 12.064 15.4361 12.288 15.9161 12.656C15.964 12.6943 16.0118 12.7301 16.0617 12.7673C16.0744 12.7768 16.0872 12.7863 16.1001 12.796L16.1113 12.8064C16.1641 12.8554 16.2201 12.9075 16.2761 12.956C16.3361 13.012 16.3961 13.068 16.4561 13.128L16.4667 13.1393C16.5196 13.196 16.5756 13.256 16.6281 13.316C16.8641 13.572 17.0681 13.876 17.2721 14.208C17.4561 14.548 17.6281 14.92 17.7441 15.328C17.7521 15.354 17.7601 15.379 17.7681 15.404C17.7761 15.429 17.7841 15.454 17.7921 15.48L17.8161 15.556L17.8321 15.64C17.841 15.6901 17.8508 15.741 17.8606 15.7923C17.8727 15.8557 17.885 15.9199 17.8961 15.984L17.9121 16.072L17.9201 16.144C17.9221 16.168 17.9251 16.192 17.9281 16.216C17.9311 16.24 17.9341 16.264 17.9361 16.288C17.9381 16.312 17.9411 16.336 17.9441 16.36C17.9471 16.384 17.9501 16.408 17.9521 16.432L17.9601 16.504L17.9641 16.624C17.9881 17.08 17.9521 17.556 17.8601 18.032C17.8081 18.268 17.7481 18.512 17.6641 18.744C17.5841 18.98 17.4841 19.212 17.3721 19.444C16.9161 20.356 16.1881 21.184 15.2641 21.764C14.8041 22.052 14.2961 22.284 13.7641 22.436C13.6824 22.4607 13.5993 22.4809 13.5155 22.5012C13.4639 22.5137 13.412 22.5263 13.3601 22.54C13.3148 22.548 13.2694 22.5569 13.2241 22.5658C13.1334 22.5836 13.0428 22.6013 12.9521 22.612L12.7441 22.64L12.5201 22.656L12.4081 22.664L12.3241 22.668L12.1521 22.672H12.1121H12.1001H12.0721H12.0201L11.9161 22.668C11.8481 22.668 11.7761 22.664 11.7081 22.656L11.5001 22.64L11.2921 22.612C11.2014 22.6013 11.1107 22.5836 11.0201 22.5658C10.9747 22.5569 10.9294 22.548 10.8841 22.54C10.8581 22.5339 10.8321 22.5279 10.8061 22.5219C10.6962 22.4967 10.5868 22.4716 10.4801 22.436C9.94809 22.284 9.44409 22.052 8.98009 21.764C8.06009 21.184 7.32809 20.36 6.87209 19.444C6.64409 18.988 6.48009 18.508 6.38409 18.032C6.34009 17.792 6.30409 17.556 6.28809 17.32L6.27609 17.144C6.27609 17.112 6.27509 17.081 6.27409 17.05C6.27309 17.019 6.27209 16.988 6.27209 16.956C6.26908 16.8536 6.27286 16.7807 6.27663 16.7083C6.27786 16.6845 6.2791 16.6607 6.28009 16.636L6.28409 16.54L6.29209 16.456C6.29609 16.428 6.29909 16.4 6.30209 16.372C6.30509 16.344 6.30809 16.316 6.31209 16.288C6.31609 16.26 6.31909 16.232 6.32209 16.204C6.32509 16.176 6.32809 16.148 6.33209 16.12L6.34409 16.036L6.36009 15.956C6.37123 15.8958 6.38362 15.8356 6.39587 15.7761C6.4056 15.7288 6.41523 15.682 6.42409 15.636L6.44009 15.556L6.46409 15.48C6.48009 15.428 6.49609 15.376 6.51209 15.328C6.62809 14.92 6.80009 14.548 6.98409 14.208C7.37209 13.536 7.86009 13.024 8.34009 12.656C8.82009 12.288 9.29609 12.064 9.68809 11.92C10.0577 11.798 10.3658 11.7341 10.5777 11.7093C8.72669 12.3616 7.40008 14.1259 7.40008 16.2C7.40008 18.8289 9.5312 20.96 12.1601 20.96Z" fill="white"/>
<path fill-rule="evenodd" clip-rule="evenodd" d="M11.9956 11.1886C12.5314 9.14644 14.3898 7.64 16.6001 7.64C19.229 7.64 21.3601 9.77112 21.3601 12.4C21.3601 15.0289 19.229 17.16 16.6001 17.16C14.4055 17.16 12.5579 15.6749 12.0072 13.6549C12.0117 13.7122 12.0185 13.7954 12.0281 13.904C12.0481 14.116 12.1121 14.448 12.2441 14.844C12.3881 15.236 12.6121 15.712 12.9801 16.192C13.3481 16.672 13.8601 17.16 14.5321 17.548C14.8681 17.732 15.2401 17.904 15.6481 18.02C15.6961 18.036 15.7481 18.052 15.8001 18.068L15.8761 18.092L15.9561 18.108C16.0021 18.1169 16.0489 18.1265 16.0962 18.1362C16.1557 18.1485 16.2159 18.1609 16.2761 18.172L16.3561 18.188L16.4401 18.196C16.4674 18.2002 16.4959 18.2033 16.5248 18.2065C16.551 18.2093 16.5775 18.2122 16.6041 18.216C16.6321 18.22 16.6601 18.223 16.6881 18.226C16.7161 18.229 16.7441 18.232 16.7721 18.236L16.8561 18.244L16.9521 18.248C16.9768 18.249 17.0006 18.2502 17.0244 18.2515C17.0968 18.2552 17.1697 18.259 17.2721 18.256C17.3041 18.256 17.3351 18.255 17.3661 18.254C17.3971 18.253 17.4281 18.252 17.4601 18.252L17.6361 18.24C17.8721 18.224 18.1081 18.188 18.3481 18.144C18.8241 18.048 19.3041 17.884 19.7601 17.656C20.6761 17.2 21.5001 16.468 22.0801 15.548C22.3681 15.084 22.6001 14.58 22.7521 14.048C22.7877 13.9412 22.8128 13.8318 22.838 13.722C22.844 13.696 22.85 13.67 22.8561 13.644C22.8641 13.5987 22.873 13.5533 22.8818 13.508C22.8996 13.4173 22.9174 13.3267 22.9281 13.236L22.9561 13.028L22.9721 12.82C22.9801 12.752 22.9841 12.68 22.9841 12.612L22.9881 12.508V12.456V12.432V12.42V12.38L22.9841 12.208L22.9801 12.124L22.9721 12.012L22.9561 11.788L22.9281 11.58C22.9174 11.4893 22.8996 11.3987 22.8818 11.308C22.873 11.2627 22.8641 11.2173 22.8561 11.172C22.8423 11.1201 22.8298 11.0682 22.8173 11.0166C22.797 10.9328 22.7768 10.8496 22.7521 10.768C22.6001 10.236 22.3681 9.728 22.0801 9.268C21.5001 8.344 20.6721 7.616 19.7601 7.16C19.5281 7.048 19.2961 6.948 19.0601 6.868C18.8281 6.784 18.5841 6.724 18.3481 6.672C17.8681 6.58 17.3961 6.544 16.9401 6.568L16.8201 6.572L16.7481 6.58C16.7241 6.582 16.7001 6.585 16.6761 6.588C16.6521 6.591 16.6281 6.594 16.6041 6.596C16.5801 6.598 16.5561 6.601 16.5321 6.604C16.5081 6.607 16.4841 6.61 16.4601 6.612L16.3881 6.62L16.3001 6.636C16.2359 6.64706 16.1718 6.65934 16.1083 6.67149C16.057 6.68132 16.0061 6.69106 15.9561 6.7L15.8721 6.716L15.7961 6.74C15.7701 6.748 15.7451 6.756 15.7201 6.764C15.6951 6.772 15.6701 6.78 15.6441 6.788C15.2361 6.904 14.8641 7.076 14.5241 7.26C14.1921 7.464 13.8881 7.668 13.6321 7.904C13.5721 7.95651 13.512 8.01254 13.4553 8.06549C13.4516 8.06901 13.4478 8.07251 13.4441 8.076C13.3841 8.136 13.3281 8.196 13.2721 8.256C13.2235 8.31202 13.1715 8.36805 13.1225 8.42081C13.119 8.42456 13.1155 8.42829 13.1121 8.432C13.1024 8.44493 13.0928 8.4577 13.0834 8.47034C13.0461 8.52025 13.0104 8.56812 12.9721 8.616C12.6041 9.096 12.3801 9.568 12.2361 9.964C12.1041 10.368 12.0441 10.684 12.0201 10.904C12.0075 11.0396 11.9997 11.1358 11.9956 11.1886Z" fill="white"/>
</svg>
